<?xml version="1.0" standalone="no"?>
<!DOCTYPE svg PUBLIC "-//W3C//DTD SVG 1.1//EN"
  "http://www.w3.org/Graphics/SVG/1.1/DTD/svg11.dtd">
<svg width="47.59999990463257mm" height="60.59999847412108mm" viewBox="-51 -49.59999847412108 47.59999990463257 60.59999847412108" xmlns="http://www.w3.org/2000/svg" version="1.1">
	<title>svgOutput</title>
	<desc>made with tinkercad</desc>
<path d="M -4.400000095367432 9.999999999999998 L -10.303000450134277 9.999999999999998 L -48.10300064086914 9.999999999999998 L -50 9.999999999999998 L -50 -48.59999847412108 L -48.10300064086914 -48.59999847412108 L -44.70199966430664 -48.59999847412108 L -44.097999572753906 -48.59999847412108 L -36.65738296508789 -48.59999847412108 L -27.99794578552246 -48.59999847412108 L -27.327665328979492 -48.59999847412108 L -26.65738296508789 -48.59999847412108 L -10.303000450134277 -48.59999847412108 L -6.296999931335449 -48.59999847412108 L -4.400000095367432 -48.59999847412108 L -4.400000095367432 -42.69800186157226 L -4.400000095367432 -37.510269165039055 L -4.400000095367432 -21.83200073242187 L -4.400000095367432 -10.487729072570799 L -4.400000095367432 -1.8197289705276485 L -4.400000095367432 9.999999999999998 M -8.918999671936035 -46.60400009155273 L -9.47700023651123 -46.31999969482421 L -9.920000076293945 -45.87699890136718 L -10.204000473022461 -45.31900024414062 L -10.303000450134277 -44.700000762939446 L -10.204000473022461 -44.081001281738274 L -9.920000076293945 -43.522998809814446 L -9.47700023651123 -43.08000183105468 L -8.918999671936035 -42.796001434326165 L -8.300000190734863 -42.69800186157226 L -8.192000389099121 -42.71509933471679 L -7.681000232696533 -42.796001434326165 L -7.123000144958496 -43.08000183105468 L -6.679999828338623 -43.522998809814446 L -6.395999908447266 -44.081001281738274 L -6.296999931335449 -44.700000762939446 L -6.395999908447266 -45.31900024414062 L -6.679999828338623 -45.87699890136718 L -7.123000144958496 -46.31999969482421 L -7.681000232696533 -46.60400009155273 L -8.192000389099121 -46.68572616577148 L -8.300000190734863 -46.70299911499023 L -8.918999671936035 -46.60400009155273 M -45.48099899291992 8.003999710083006 L -44.92300033569336 7.719999790191649 L -44.47999954223633 7.276999950408934 L -44.19599914550781 6.718999862670897 L -44.10496520996094 6.14400005340576 L -44.097999572753906 6.099999904632567 L -44.19599914550781 5.480999946594237 L -44.47999954223633 4.9229998588562 L -44.92300033569336 4.480000019073485 L -45.48099899291992 4.196000099182128 L -46.099998474121094 4.098000049591064 L -46.71900177001953 4.196000099182128 L -47.277000427246094 4.480000019073485 L -47.720001220703125 4.9229998588562 L -48.00400161743164 5.480999946594237 L -48.10300064086914 6.099999904632567 L -48.09596252441406 6.14400005340576 L -48.00400161743164 6.718999862670897 L -47.720001220703125 7.276999950408934 L -47.277000427246094 7.719999790191649 L -46.71900177001953 8.003999710083006 L -46.099998474121094 8.102999687194822 L -45.48099899291992 8.003999710083006 M -10.949000358581543 -17.497999191284176 L -10.303000450134277 -18.617010116577145 L -9.697999954223633 -19.66500091552734 L -10.303000450134277 -20.712989807128903 L -10.949000358581543 -21.83200073242187 L -11.619281768798828 -21.83200073242187 L -13.451000213623047 -21.83200073242187 L -14.70199966430664 -19.66500091552734 L -13.451000213623047 -17.497999191284176 L -10.949000358581543 -17.497999191284176 M -23.451000213623047 -21.83200073242187 L -24.70199966430664 -19.66500091552734 L -23.451000213623047 -17.497999191284176 L -20.948999404907227 -17.497999191284176 L -19.697999954223633 -19.66500091552734 L -20.948999404907227 -21.83200073242187 L -21.619281768798828 -21.83200073242187 L -23.451000213623047 -21.83200073242187 M -33.45100021362305 -21.83200073242187 L -34.70199966430664 -19.66500091552734 L -33.45100021362305 -17.497999191284176 L -30.948999404907227 -17.497999191284176 L -29.697999954223633 -19.66500091552734 L -30.948999404907227 -21.83200073242187 L -31.619281768798828 -21.83200073242187 L -33.45100021362305 -21.83200073242187 M -18.451000213623047 -29.332000732421868 L -19.70199966430664 -27.165000915527337 L -18.451000213623047 -24.997999191284173 L -15.949000358581543 -24.997999191284173 L -14.697999954223633 -27.165000915527337 L -15.949000358581543 -29.332000732421868 L -16.619281768798828 -29.332000732421868 L -18.451000213623047 -29.332000732421868 M -28.451000213623047 -29.332000732421868 L -29.70199966430664 -27.165000915527337 L -28.451000213623047 -24.997999191284173 L -25.948999404907227 -24.997999191284173 L -24.697999954223633 -27.165000915527337 L -25.948999404907227 -29.332000732421868 L -26.619281768798828 -29.332000732421868 L -28.451000213623047 -29.332000732421868 M -10.949000358581543 -32.498001098632805 L -10.303000450134277 -33.617012023925774 L -9.697999954223633 -34.66500091552734 L -10.303000450134277 -35.7129898071289 L -10.949000358581543 -36.83200073242187 L -13.451000213623047 -36.83200073242187 L -14.70199966430664 -34.66500091552734 L -13.451000213623047 -32.498001098632805 L -10.949000358581543 -32.498001098632805 M -44.097999572753906 -35.711257934570305 L -44.70199966430664 -34.66500091552734 L -44.097999572753906 -33.61874389648437 L -43.45100021362305 -32.498001098632805 L -40.94900131225586 -32.498001098632805 L -39.698001861572266 -34.66500091552734 L -40.94900131225586 -36.83200073242187 L -43.45100021362305 -36.83200073242187 L -44.097999572753906 -35.711257934570305 M -44.097999572753906 -20.71125793457031 L -44.70199966430664 -19.66500091552734 L -44.097999572753906 -18.61874198913574 L -43.45100021362305 -17.497999191284176 L -40.94900131225586 -17.497999191284176 L -39.698001861572266 -19.66500091552734 L -40.94900131225586 -21.83200073242187 L -43.45100021362305 -21.83200073242187 L -44.097999572753906 -20.71125793457031 M -35.94900131225586 -24.997999191284173 L -34.698001861572266 -27.165000915527337 L -35.94900131225586 -29.332000732421868 L -38.45100021362305 -29.332000732421868 L -39.70199966430664 -27.165000915527337 L -38.45100021362305 -24.997999191284173 L -35.94900131225586 -24.997999191284173 M -30.948999404907227 -32.498001098632805 L -29.697999954223633 -34.66500091552734 L -30.948999404907227 -36.83200073242187 L -33.45100021362305 -36.83200073242187 L -34.70199966430664 -34.66500091552734 L -33.45100021362305 -32.498001098632805 L -30.948999404907227 -32.498001098632805 M -20.948999404907227 -32.498001098632805 L -19.697999954223633 -34.66500091552734 L -20.948999404907227 -36.83200073242187 L -23.451000213623047 -36.83200073242187 L -24.70199966430664 -34.66500091552734 L -23.451000213623047 -32.498001098632805 L -20.948999404907227 -32.498001098632805 z" fill="none" stroke="rgb(255,0,0)" stroke-width="0.001mm" />
</svg>