<?xml version="1.0" standalone="no"?>
<!DOCTYPE svg PUBLIC "-//W3C//DTD SVG 1.1//EN"
  "http://www.w3.org/Graphics/SVG/1.1/DTD/svg11.dtd">
<svg width="50mm" height="62.999999999999986mm" viewBox="-53 -49.999999999999986 50 62.999999999999986" xmlns="http://www.w3.org/2000/svg" version="1.1">
	<title>svgOutput</title>
	<desc>made with tinkercad</desc>
<path d="M -4.02400016784668 -48.65499877929686 L -4.020493507385254 -48.63999938964842 L -4.00600004196167 -48.57799911499022 L -4 -48.499999999999986 L -4 -48.12799835205077 L -4 -47.10400009155273 L -4 -45.05599975585937 L -4 -40.95999908447265 L -4 -32.76800155639648 L -4 -16.38400077819824 L -4 1.1102230246251565e-16 L -4 8.19200038909912 L -4 10.239999771118162 L -4 11.263999938964842 L -4 11.499999999999998 L -4.001538276672363 11.52000045776367 L -4.00600004196167 11.578000068664549 L -4.02400016784668 11.65499973297119 L -4.053999900817871 11.727000236511229 L -4.083984851837158 11.776000022888182 L -4.09499979019165 11.793999671936033 L -4.0960001945495605 11.795176506042479 L -4.145999908447266 11.854000091552733 L -4.205999851226807 11.90499973297119 L -4.223999977111816 11.916014671325682 L -4.2729997634887695 11.946000099182127 L -4.34499979019165 11.975999832153319 L -4.3520002365112305 11.977636337280272 L -4.421999931335449 11.994000434875487 L -4.5 11.999999999999996 L -4.607999801635742 11.999999999999996 L -5.119999885559082 11.999999999999996 L -6 11.999999999999996 L -6.144000053405762 11.999999999999996 L -8.192000389099121 11.999999999999996 L -12.199999809265137 11.999999999999996 L -16.384000778198242 11.999999999999996 L -32.768001556396484 11.999999999999996 L -43.79999923706055 11.999999999999996 L -49.152000427246094 11.999999999999996 L -50 11.999999999999996 L -51.20000076293945 11.999999999999996 L -51.45600128173828 11.999999999999996 L -51.5 11.999999999999996 L -51.577999114990234 11.994000434875487 L -51.654998779296875 11.975999832153319 L -51.71200180053711 11.952249526977537 L -51.72700119018555 11.946000099182127 L -51.79399871826172 11.90499973297119 L -51.854000091552734 11.854000091552733 L -51.904998779296875 11.793999671936033 L -51.916015625 11.776000022888182 L -51.94599914550781 11.727000236511229 L -51.96799850463867 11.674200057983397 L -51.97600173950195 11.65499973297119 L -51.99399948120117 11.578000068664549 L -51.99846267700195 11.52000045776367 L -52 11.499999999999998 L -52 11.263999938964842 L -52 10.239999771118162 L -52 8.19200038909912 L -52 1.1102230246251565e-16 L -52 -16.38400077819824 L -52 -32.76800155639648 L -52 -40.95999908447265 L -52 -45.05599975585937 L -52 -47.10400009155273 L -52 -48.12799835205077 L -52 -48.499999999999986 L -51.99399948120117 -48.57799911499022 L -51.97950744628906 -48.63999938964842 L -51.97600173950195 -48.65499877929686 L -51.96799850463867 -48.67419815063475 L -51.94599914550781 -48.72700119018553 L -51.904998779296875 -48.793998718261705 L -51.854000091552734 -48.85400009155272 L -51.804588317871094 -48.89599990844725 L -51.79399871826172 -48.90499877929686 L -51.72700119018555 -48.9459991455078 L -51.71200180053711 -48.95225143432616 L -51.654998779296875 -48.97600173950194 L -51.577999114990234 -48.99399948120116 L -51.5 -48.999999999999986 L -51.45600128173828 -48.999999999999986 L -51.20000076293945 -48.999999999999986 L -50 -48.999999999999986 L -49.152000427246094 -48.999999999999986 L -43.79999923706055 -48.999999999999986 L -32.768001556396484 -48.999999999999986 L -16.384000778198242 -48.999999999999986 L -12.199999809265137 -48.999999999999986 L -8.192000389099121 -48.999999999999986 L -6.144000053405762 -48.999999999999986 L -6 -48.999999999999986 L -5.119999885559082 -48.999999999999986 L -4.607999801635742 -48.999999999999986 L -4.5 -48.999999999999986 L -4.421999931335449 -48.99399948120116 L -4.3520002365112305 -48.97763824462889 L -4.34499979019165 -48.97600173950194 L -4.2729997634887695 -48.9459991455078 L -4.205999851226807 -48.90499877929686 L -4.195411682128906 -48.89599990844725 L -4.145999908447266 -48.85400009155272 L -4.0960001945495605 -48.79517745971678 L -4.09499979019165 -48.793998718261705 L -4.053999900817871 -48.72700119018553 L -4.02400016784668 -48.65499877929686 z" fill="none" stroke="rgb(255,0,0)" stroke-width="0.001mm" />
</svg>