<?xml version="1.0" standalone="no"?>
<!DOCTYPE svg PUBLIC "-//W3C//DTD SVG 1.1//EN"
  "http://www.w3.org/Graphics/SVG/1.1/DTD/svg11.dtd">
<svg width="50mm" height="62.999999999999986mm" viewBox="-51 -51.999999999999986 50 62.999999999999986" xmlns="http://www.w3.org/2000/svg" version="1.1">
	<title>svgOutput</title>
	<desc>made with tinkercad</desc>
<path d="M -2.0239999294281006 9.65499973297119 L -2.0480000972747803 9.712599754333494 L -2.053999900817871 9.727000236511229 L -2.054611921310425 9.727999687194822 L -2.0950000286102295 9.793999671936033 L -2.1459999084472656 9.854000091552733 L -2.2060000896453857 9.90499973297119 L -2.2730000019073486 9.946000099182127 L -2.303999900817871 9.958916664123533 L -2.3450000286102295 9.975999832153319 L -2.3792221546173096 9.98400020599365 L -2.421999931335449 9.994000434875487 L -2.5 9.999999999999998 L -2.559999942779541 9.999999999999998 L -3.072000026702881 9.999999999999998 L -4 9.999999999999998 L -4.0960001945495605 9.999999999999998 L -8.192000389099121 9.999999999999998 L -10.199999809265137 9.999999999999998 L -16.384000778198242 9.999999999999998 L -19.149999618530273 9.999999999999998 L -32.768001556396484 9.999999999999998 L -41.099998474121094 9.999999999999998 L -48 9.999999999999998 L -48.00299835205078 9.999999999999998 L -49.152000427246094 9.999999999999998 L -49.40800094604492 9.999999999999998 L -49.5 9.999999999999998 L -49.577999114990234 9.994000434875487 L -49.62077713012695 9.98400020599365 L -49.654998779296875 9.975999832153319 L -49.66400146484375 9.97224998474121 L -49.72700119018555 9.946000099182127 L -49.79399871826172 9.90499973297119 L -49.854000091552734 9.854000091552733 L -49.904998779296875 9.793999671936033 L -49.91999816894531 9.769487380981444 L -49.94538879394531 9.727999687194822 L -49.94599914550781 9.727000236511229 L -49.97600173950195 9.65499973297119 L -49.99399948120117 9.578000068664549 L -50 9.499999999999998 L -50 9.47200012207031 L -50 9.215999603271483 L -50 8.19200038909912 L -50 1.1102230246251565e-16 L -50 -16.38400077819824 L -50 -32.76800155639648 L -50 -49.15200042724608 L -50 -50.175998687744126 L -50 -50.431999206542955 L -50 -50.499999999999986 L -49.99399948120117 -50.57799911499022 L -49.97600173950195 -50.65499877929686 L -49.962249755859375 -50.68799972534178 L -49.94599914550781 -50.72700119018553 L -49.91999816894531 -50.769489288330064 L -49.904998779296875 -50.793998718261705 L -49.854000091552734 -50.85400009155272 L -49.79399871826172 -50.90499877929686 L -49.73026657104492 -50.94400024414061 L -49.72700119018555 -50.9459991455078 L -49.66400146484375 -50.97225189208983 L -49.654998779296875 -50.97600173950194 L -49.577999114990234 -50.99399948120116 L -49.5 -50.999999999999986 L -49.40800094604492 -50.999999999999986 L -49.152000427246094 -50.999999999999986 L -48 -50.999999999999986 L -41.099998474121094 -50.999999999999986 L -32.768001556396484 -50.999999999999986 L -19.149999618530273 -50.999999999999986 L -16.384000778198242 -50.999999999999986 L -8.192000389099121 -50.999999999999986 L -4.0960001945495605 -50.999999999999986 L -3.072000026702881 -50.999999999999986 L -2.559999942779541 -50.999999999999986 L -2.5 -50.999999999999986 L -2.421999931335449 -50.99399948120116 L -2.3450000286102295 -50.97600173950194 L -2.303999900817871 -50.958915710449205 L -2.2730000019073486 -50.9459991455078 L -2.2697317600250244 -50.94400024414061 L -2.2060000896453857 -50.90499877929686 L -2.1459999084472656 -50.85400009155272 L -2.1136999130249023 -50.81600189208983 L -2.0950000286102295 -50.793998718261705 L -2.053999900817871 -50.72700119018553 L -2.0480000972747803 -50.7126007080078 L -2.0239999294281006 -50.65499877929686 L -2.00600004196167 -50.57799911499022 L -2 -50.499999999999986 L -2 -49.15200042724608 L -2 -34.49999999999999 L -2 -32.76800155639648 L -2 -16.38400077819824 L -2 1.1102230246251565e-16 L -2 8.19200038909912 L -2 9.499999999999998 L -2.00600004196167 9.578000068664549 L -2.0239999294281006 9.65499973297119 z" fill="none" stroke="rgb(255,0,0)" stroke-width="0.001mm" />
</svg>